<svg width="32" height="31" viewBox="0 0 32 31" fill="none" xmlns="http://www.w3.org/2000/svg">
<g clip-path="url(#clip0_22512_10519)">
<path d="M16.1016 2.79121C20.243 2.79121 20.7334 2.80937 22.3621 2.88203C23.8758 2.94863 24.6932 3.20293 25.2381 3.41484C25.9586 3.69336 26.4793 4.03242 27.0182 4.57129C27.5631 5.11621 27.8961 5.63086 28.1746 6.35137C28.3865 6.89629 28.6408 7.71973 28.7074 9.22734C28.7801 10.8621 28.7982 11.3525 28.7982 15.4879C28.7982 19.6293 28.7801 20.1197 28.7074 21.7484C28.6408 23.2621 28.3865 24.0795 28.1746 24.6244C27.8961 25.3449 27.557 25.8656 27.0182 26.4045C26.4732 26.9494 25.9586 27.2824 25.2381 27.5609C24.6932 27.7729 23.8697 28.0271 22.3621 28.0938C20.7273 28.1664 20.2369 28.1846 16.1016 28.1846C11.9602 28.1846 11.4697 28.1664 9.84102 28.0938C8.32734 28.0271 7.50996 27.7729 6.96504 27.5609C6.24453 27.2824 5.72383 26.9434 5.18496 26.4045C4.64004 25.8596 4.30703 25.3449 4.02852 24.6244C3.8166 24.0795 3.5623 23.2561 3.4957 21.7484C3.42305 20.1137 3.40488 19.6232 3.40488 15.4879C3.40488 11.3465 3.42305 10.8561 3.4957 9.22734C3.5623 7.71367 3.8166 6.89629 4.02852 6.35137C4.30703 5.63086 4.64609 5.11016 5.18496 4.57129C5.72988 4.02637 6.24453 3.69336 6.96504 3.41484C7.50996 3.20293 8.3334 2.94863 9.84102 2.88203C11.4697 2.80937 11.9602 2.79121 16.1016 2.79121ZM16.1016 0C11.8936 0 11.3668 0.0181641 9.71387 0.0908203C8.06699 0.163477 6.93477 0.429883 5.95391 0.811328C4.93066 1.21094 4.06484 1.7377 3.20508 2.60352C2.33926 3.46328 1.8125 4.3291 1.41289 5.34629C1.03145 6.3332 0.765039 7.45937 0.692383 9.10625C0.619727 10.7652 0.601562 11.292 0.601562 15.5C0.601562 19.708 0.619727 20.2348 0.692383 21.8877C0.765039 23.5346 1.03145 24.6668 1.41289 25.6477C1.8125 26.6709 2.33926 27.5367 3.20508 28.3965C4.06484 29.2562 4.93066 29.7891 5.94785 30.1826C6.93477 30.5641 8.06094 30.8305 9.70781 30.9031C11.3607 30.9758 11.8875 30.9939 16.0955 30.9939C20.3035 30.9939 20.8303 30.9758 22.4832 30.9031C24.1301 30.8305 25.2623 30.5641 26.2432 30.1826C27.2604 29.7891 28.1262 29.2562 28.9859 28.3965C29.8457 27.5367 30.3785 26.6709 30.7721 25.6537C31.1535 24.6668 31.4199 23.5406 31.4926 21.8938C31.5652 20.2408 31.5834 19.7141 31.5834 15.5061C31.5834 11.298 31.5652 10.7713 31.4926 9.11836C31.4199 7.47148 31.1535 6.33926 30.7721 5.3584C30.3906 4.3291 29.8639 3.46328 28.998 2.60352C28.1383 1.74375 27.2725 1.21094 26.2553 0.817383C25.2684 0.435937 24.1422 0.169531 22.4953 0.096875C20.8363 0.0181641 20.3096 0 16.1016 0Z" fill="white"/>
<path d="M16.1016 7.53906C11.7059 7.53906 8.13965 11.1053 8.13965 15.501C8.13965 19.8967 11.7059 23.4629 16.1016 23.4629C20.4973 23.4629 24.0635 19.8967 24.0635 15.501C24.0635 11.1053 20.4973 7.53906 16.1016 7.53906ZM16.1016 20.6656C13.2498 20.6656 10.9369 18.3527 10.9369 15.501C10.9369 12.6492 13.2498 10.3363 16.1016 10.3363C18.9533 10.3363 21.2662 12.6492 21.2662 15.501C21.2662 18.3527 18.9533 20.6656 16.1016 20.6656Z" fill="white"/>
<path d="M26.2371 7.22207C26.2371 8.25137 25.4016 9.08086 24.3783 9.08086C23.349 9.08086 22.5195 8.24532 22.5195 7.22207C22.5195 6.19277 23.3551 5.36328 24.3783 5.36328C25.4016 5.36328 26.2371 6.19883 26.2371 7.22207Z" fill="white"/>
</g>
<defs>
<clipPath id="clip0_22512_10519">
<rect width="31" height="31" fill="white" transform="translate(0.601562)"/>
</clipPath>
</defs>
</svg>
