<svg width="32" height="31" viewBox="0 0 32 31" fill="none" xmlns="http://www.w3.org/2000/svg">
<g clip-path="url(#clip0_22512_10524)">
<path d="M29.1037 0H2.68711C1.42168 0 0.398438 0.999024 0.398438 2.23418V28.7598C0.398438 29.9949 1.42168 31 2.68711 31H29.1037C30.3691 31 31.3984 29.9949 31.3984 28.7658V2.23418C31.3984 0.999024 30.3691 0 29.1037 0ZM9.59551 26.4166H4.99395V11.6189H9.59551V26.4166ZM7.29473 9.60273C5.81738 9.60273 4.62461 8.40996 4.62461 6.93867C4.62461 5.46738 5.81738 4.27461 7.29473 4.27461C8.76602 4.27461 9.95879 5.46738 9.95879 6.93867C9.95879 8.40391 8.76602 9.60273 7.29473 9.60273ZM26.815 26.4166H22.2195V19.2236C22.2195 17.5102 22.1893 15.3002 19.8279 15.3002C17.4363 15.3002 17.073 17.1711 17.073 19.1025V26.4166H12.4836V11.6189H16.8914V13.6412H16.952C17.5635 12.4787 19.065 11.2496 21.2992 11.2496C25.9553 11.2496 26.815 14.3133 26.815 18.2973V26.4166Z" fill="white"/>
</g>
<defs>
<clipPath id="clip0_22512_10524">
<rect width="31" height="31" fill="white" transform="translate(0.398438)"/>
</clipPath>
</defs>
</svg>
