<svg width="32" height="31" viewBox="0 0 32 31" fill="none" xmlns="http://www.w3.org/2000/svg">
<g clip-path="url(#clip0_22512_10517)">
<path d="M10.5531 28.0947C22.2483 28.0947 28.6469 18.4029 28.6469 10.0008C28.6469 9.72839 28.6408 9.44987 28.6287 9.17741C29.8735 8.27725 30.9476 7.16227 31.8008 5.88487C30.6415 6.40064 29.4107 6.73748 28.1504 6.8839C29.4774 6.08845 30.4711 4.83885 30.9471 3.36673C29.6987 4.10658 28.3334 4.62849 26.9098 4.91007C25.9506 3.89088 24.6824 3.21605 23.3012 2.98993C21.92 2.7638 20.5028 2.99897 19.2687 3.65907C18.0346 4.31917 17.0523 5.36744 16.4737 6.64181C15.8951 7.91617 15.7524 9.34566 16.0677 10.7092C13.5398 10.5824 11.0669 9.92573 8.80909 8.78182C6.55132 7.63792 4.55913 6.0323 2.9617 4.06907C2.1498 5.46889 1.90135 7.12532 2.26686 8.70173C2.63237 10.2781 3.5844 11.6562 4.92947 12.5559C3.91968 12.5239 2.932 12.252 2.04805 11.7628V11.8415C2.04714 13.3105 2.55499 14.7345 3.48526 15.8714C4.41554 17.0083 5.71082 17.7879 7.15094 18.0778C6.21552 18.3337 5.23376 18.371 4.28162 18.1868C4.68799 19.4501 5.47865 20.5551 6.54323 21.3475C7.60782 22.1398 8.89323 22.58 10.2201 22.6067C7.9675 24.3761 5.18492 25.3359 2.32051 25.3313C1.81253 25.3305 1.30505 25.2994 0.800781 25.2381C3.71072 27.105 7.09576 28.0965 10.5531 28.0947Z" fill="white"/>
</g>
<defs>
<clipPath id="clip0_22512_10517">
<rect width="31" height="31" fill="white" transform="translate(0.800781)"/>
</clipPath>
</defs>
</svg>
